<svg width="171" height="171" viewBox="0 0 171 171" fill="none" xmlns="http://www.w3.org/2000/svg">
<path fill-rule="evenodd" clip-rule="evenodd" d="M85.5 171C132.72 171 171 132.72 171 85.5C171 76.65 169.655 68.114 167.159 60.0852C166.07 56.5816 161.405 56.7867 160.297 60.2844L136.702 134.768C136.278 136.154 135.508 137.399 134.392 138.504C133.415 139.471 131.886 139.948 129.804 139.937L111.064 139.839C109.121 139.829 107.596 139.335 106.491 138.358C105.386 137.241 104.629 135.988 104.22 134.598L89.0964 88.7593C87.8947 85.1172 82.7524 85.0902 81.5125 88.7195L65.9085 134.397C65.4848 135.783 64.7148 137.028 63.5985 138.133C62.4829 139.098 60.9534 139.576 59.0101 139.566L40.2707 139.468C38.1885 139.457 36.6641 138.963 35.6976 137.986C34.7317 136.871 33.9748 135.617 33.4268 134.226L10.7851 60.0572C9.71048 56.5369 5.03206 56.2973 3.92732 59.8083C1.37574 67.9176 0 76.5482 0 85.5C0 132.72 38.2797 171 85.5 171ZM27.9838 31.1281C24.6104 31.1104 22.8383 27.2322 25.2311 24.8542C40.6884 9.49236 61.9857 0 85.5 0C109.337 0 130.896 9.75462 146.402 25.4898C148.77 27.8927 146.957 31.7522 143.584 31.7345L141.407 31.7231C139.602 31.7136 138.142 32.1918 137.027 33.1577C136.05 34.1242 135.42 35.0926 135.138 36.0629L121.1 82.9454C119.967 86.7297 114.618 86.7557 113.448 82.9826L99.0042 36.395C98.9394 36.186 98.8973 35.9708 98.8447 35.7585C98.6303 34.893 98.0314 34.0256 97.0482 33.1562C95.9436 32.0399 94.4196 31.4766 92.4762 31.4664L78.7339 31.3943C76.7906 31.3841 75.2608 31.9314 74.1445 33.036C73.1677 34.0026 72.5379 34.971 72.2552 35.9412L57.2231 82.6876C56.0138 86.4483 50.6647 86.3661 49.5714 82.5701L36.0267 35.5429C35.7542 34.5698 35.0653 33.5945 33.9599 32.617C32.9933 31.6402 31.6077 31.1471 29.8032 31.1376L27.9838 31.1281Z" fill="white"/>
</svg>
